<svg xmlns="http://www.w3.org/2000/svg" width="99.993" height="99.993" viewBox="0 0 881 881">
  <defs>
    <style>
      .cls-1 {
        fill: #fff;
        fill-rule: evenodd;
      }
    </style>
  </defs>
  <path id="Color_Fill_1" data-name="Color Fill 1" class="cls-1" d="M493,19c7.824-.275,17.082-0.361,22,2,2.716,19.356-33.8,29.969-44,42-25.178,29.7-42.808,61.557-58,102-4,10.635-11.8,18.27-13,32l2-1c8.357-17.406,49-86.028,68-88l2,2q-0.5,3-1,6l-29,40c-19.429,36.7-31.66,78.41-61,105l-10-1-3-2c-1.105-54.754,35.455-112.129,53-155,5.042-12.321,12.722-24,14-40l-3-2c-46.7.494-66.351,99.676-98,124-5.895-.174-5.927-0.072-8-4-3.135-16.109,15.115-40.825,22-53,24.206-42.806,51.175-81.04,99-100C460.665,22.582,477.594,24.874,493,19ZM598,47c20.141-.719,26.366,1.91,35,12,0.115,7.729-1.153,8.972-4,13-14.22,1.51-64.971,6.21-70,1V72C569.866,56.914,582,57.054,598,47ZM97,62c32.369-.779,70.438,1.876,88,17q-0.5,2-1,4c-2.132,2.643-6.116,3.3-9,5,3.344,6.566.5,11.957-3,17-22.292,5.392-99.639,44.616-107,40v-7l10-10c-18.626,9.772-30.6,24.871-47,36l-4-1-3-2c1.283-17.817,28.108-37.073,42-43v-1c-12.44,3.089-32.6,24.566-42,15l1-4c19.72-25.326,57.5-38.9,95-46l31-3-38-3L61,82l-2-5C65.882,63.262,81.913,67.72,97,62ZM647,78c40.791-1.515,47.326,56.051,24,78-23.3-2.713-26.139-26.006-44-32-22.177-7.442-61.216,19.142-77,25-14.149-7.048,6.578-31.892,14-37,12.958-8.919,42.2-23.811,69-16l25,11c-4.556-10.135-13.13-12.581-14-26ZM317,257h-6v2c-4.856,13.872.323,34.743-12,41l-6-3-10-34q-0.5-14-1-28-2,17-4,34c-3.287,2.2-3.739,3.177-9,4l-10-12v2c-13.307,10.96-20.96,32.911-30,48l-5,1-3-4c0.048-31.1,47.463-80.94,23-112h-1q-2.5,15.5-5,31l-3,1c-4.692,1.914-6.863.043-10-2-2.55-30.325,18.779-84.8,2-106-5.836-7.372-24.857-9.233-33-14-0.3-13.021,3.758-17.072,9-24h6l2,3V97h8c10.182-4.888,23.669-12.3,37-10l3,4c2.266,12.213-7.094,24.183-5,41q0.5-1,1-2c6.033-10.556,8.443-16.452,17-24,20.927,0.978,5.981,20.143,9,33l4-3c6.247-13.754,15.328-31.307,27-40,4.975,0.555,3.872-.19,6,3,2.484,10.419-10.061,20.909-13,30-6.072,18.781-6.058,61.233,10,68,1.141-4.023,1.374-3.827,4-6l7,1c6.285,11.9,7.211,26.244,7,46,9.558-6.488,21.032-41.451,28-53,4.513,0.215,5.391.708,8,2-1.209,26.338-31.069,49.369-18,83,3.411,7.828,9.74,9.216,17,13,0.63,14.975,3.236,35.033-7,40-20.755-4.426-14.225,20.156-20,34h-5l-3-3q-1-17-2-34l-2,1c-0.47,6.786-2.007,9.866-6,13h-4C308.918,317.826,316.688,280.6,317,257ZM86,104l-1,2,4-2H86Zm-3,2-4,3C80.26,108.556,85.932,106.909,83,106Zm440,57,5,2c-0.012,33.369-49.606,60.486-38,98,9.968,32.22,77.033,48.5,66,99-2.619,11.99-13.242,14.463-17,24l27,21c13.028,8.884,27.319,12.258,44,18l9-4q-0.5-4-1-8c-13.445-4.064-30.1-13.645-39-23q0.5-4,1-8c22.52,2.32,47.837,9.72,69-3l24-23c12.083-8.436,11.978-4.284,21-17,34.371-.321,47.556,36.955,28,62h-4l-2-3c-2.086-5.236-2.435-9.213-5-13h-2c-19.138-5.224-51.4,22.54-67,29v7c1.371,9.745,6.215,11.786,13,16,36.588,22.725,33.131-5.479,51-18,24,8,32.157,38.421,47,47,4.672,2.7,14.1,1.9,18,4-1.725,60.393-93.324,24.273-133,43,12.234,20.591,49.08,115.033,0,119l-2-2c2.486-34.7,4.4-70.4-18-92l-9,9c-21.515-.144-25.68-14.855-33-29-37.864.916-61.007-11.1-71-38l-5,4c2.321,3.805,2.039,6.068,0,10-11.087,1.386-27.347,8.784-37,6-5.93-1.71-8.955-6.432-12-6h-5v1l18,38c4.529,13.7,2.433,32.032,9,41l67,45c-0.215,4.513-.708,5.391-2,8-31.127-.415-81.613-37.67-99-55l-17-1v3l1,2c11.047,3.473,13.79,8.325,28,11l1,4c-6.431,15.224,1.341,43.716-6,60l-7-1c18.366,25.474,88.479,90.687,91,120l-3,2h-3c-16.373-4.4-66.551-69.964-79-86-44.719-57.6-90.027-101.543-163-132-20.187,13.167-69.085,51.678-94,14l1-3c8.006-14.157,34.225,2.963,47,0v-1l-4-6c-8.148.359-10.9,0.588-16-2v-1l1-3c13.4-28.321,111.877-51.535,142-21q-0.5,3.5-1,7c-9.463,3.415-26.352,2.161-39,2q1,2.5,2,5c12.6,3.225,28.646,3.706,40-1l4-20c5.869-12.481,37.366-28.724,31-47-9.444-17.866-44.109-13.009-39-43,4.422-5.763,8.926-5.669,16-9l-3-3c-15.706-44.532-17.615-95.341,15-128,10.081,0.914,23.626,7.151,33,4l-11-10c1.42-16.736,18.4-29.395,28-39Zm132,27c9.79,2.426,15.452,11.262,24,13,6.755,1.373,8.809-5.586,17-2q-0.5,5-1,10l-9,10c-16.348.9-40-11.433-35-26Zm-52,5c27.7-.96,56.98,7.823,61,29l-16,15c-7.519,11.823-1.468,21.917-15,28H623l-10-11a20.28,20.28,0,0,0-14,6l2,3,15,5c-0.215,4.513-.708,5.391-2,8l-12,4c-12.3-7.626-28.26-9.624-41-17q0.5-3,1-6c4.241-9.783,32.021-35.269,41-18,11.95-4.011,19.646-2.905,19-20l-3-4c-35.231-.736-50.233,17.464-75,28l-5-3v-5C559.2,220.951,580.3,209.879,603,195Zm94,25c4.571,0.667,4.376,1.065,7,3-1.149,9.706-4.767,11.527-4,22,4.574,1.581,6.452,3.546,9,7v4l-4,4c-13.92-.041-25.658-6-26-20C683.005,230.844,689.455,225.554,697,220ZM436,308v8c10.521,8.357,43.8,24.487,39,43-3.922,11.459-45.416-9.733-48-14-3.143-8.869.146-19.25-4-27l-9-6-7,1c10.908,4.564,2.89,25.954,9,35,8.423,12.47,31.656,23.276,45,31,1.555,5.043,2.23,7.4,0,12l-5,1,28,2v-4c-6.086-2.457-19.608-13.564-18-20,1.6-2.7.339-1.378,3-3,11.519-4.347,19.816-3.848,28-10q1-5.5,2-11C486.3,327.875,459.861,314.2,436,308Zm-35,4c-12.763,19.279-6.291,40.32,10,52-7.565-11.236-20.742-37.339-7-52h-3Zm-161,4,7,4q1,6,2,12c-5.077,10.211-12.793,15.207-20,23,13.163-.059,23.553,10.123,33,16-0.5,5.635-1.79,7.584-4,11-34.508,7.735-74.862,5.654-54-27,3.875-6.066,1.741-15.2,8-19l20-1C234.835,327.946,235.184,321.033,240,316Zm-13,39-2,3,3-3h-1Zm280,54c2.041,20.342,5.19,50-18,51l3,11v2C507.436,468.3,525.2,424.2,507,409Zm-59,26-3,2a60.852,60.852,0,0,0,11,26c6.209-.229,11.4.237,15,2l-4,16h1l4-3c-0.331-11.169,2.105-12.746,7-18-7.428-4.282-9.684-9.786-7-21C462.7,441.842,453.9,438.309,448,435Zm-7,25,7,9Zm7,10,3,9C450.734,474.677,450.338,472.158,448,470Zm147,90,8,1c12.26,4.722,24.086,32.8,19,47-17.165-.207-41.3-21.092-32-40Q592.5,564,595,560Zm143,20c40.411,5.775,62.7,85.122,78,121,3.906,9.16,11.675,14.838,13,27-16.82,33.641-7.021,63.393,6,95,4.762,11.559,17.816,33.633,11,49l-8-1c-12.626-28.284-25.955-73.8-48-94,1.087-56.853-6.458-93.956-24-133-8.182-18.211-28.262-39.722-30-61ZM393,599c1.616,4.655,26.229,30.895,31,35C417.489,619.13,406.773,606.314,393,599Zm169,31c6.083,0.376,23.249,6.631,26,11q0.5,2.5,1,5l-3,5c-14.747,3.228-24.065-3.434-31-11C556.215,633.417,557.961,633.332,562,630Z"/>
</svg>
